# xmcd CD database file
#
# Track frame offsets:
#	150
#	25868
#	61967
#	94841
#	128836
#	169039
#	195921
#	227031
#
# Disc length: 3463 seconds
#
# Revision: 0
# Processed by: cddbd v1.5.2PL0 Copyright (c) Steve Scherf et al.
# Submitted via: CDex 1.51
#
DISCID=5d0d8508
DTITLE=Andrst Lubos and Blues Band - Everything I've done
DYEAR=2007
DGENRE=Blues
TTITLE0=Watch yourself
TTITLE1=Keep your money
TTITLE2=No more excuses
TTITLE3=Put the shoe in the other foot
TTITLE4=Everything I've done
TTITLE5=If you love me like you say
TTITLE6=Cryin' won't help you
TTITLE7=Treat your mama right
EXTD=YEAR: 2007
EXTT0=
EXTT1=
EXTT2=
EXTT3=
EXTT4=
EXTT5=
EXTT6=
EXTT7=
PLAYORDER=
